<svg width="1024" height="1024" viewBox="0 0 1024 1024" fill="none" xmlns="http://www.w3.org/2000/svg">
  <!-- Background with gradient -->
  <rect width="1024" height="1024" rx="226" fill="url(#gradient)"/>
  
  <!-- Minimal dumbbell with modern design -->
  <g transform="translate(512, 512)">
    <!-- Left weight -->
    <rect x="-350" y="-100" width="90" height="200" rx="45" fill="white" opacity="0.95"/>
    <rect x="-330" y="-80" width="50" height="160" rx="25" fill="#14B8A6" opacity="0.5"/>
    
    <!-- Left connector -->
    <rect x="-260" y="-30" width="80" height="60" rx="30" fill="white" opacity="0.9"/>
    
    <!-- Center bar -->
    <rect x="-180" y="-20" width="360" height="40" rx="20" fill="white" opacity="0.95"/>
    
    <!-- Center accent line -->
    <rect x="-140" y="-10" width="280" height="20" rx="10" fill="#14B8A6" opacity="0.6"/>
    
    <!-- Right connector -->
    <rect x="180" y="-30" width="80" height="60" rx="30" fill="white" opacity="0.9"/>
    
    <!-- Right weight -->
    <rect x="260" y="-100" width="90" height="200" rx="45" fill="white" opacity="0.95"/>
    <rect x="280" y="-80" width="50" height="160" rx="25" fill="#14B8A6" opacity="0.5"/>
    
    <!-- Glow effect circles -->
    <circle cx="-305" cy="0" r="35" fill="#14B8A6" opacity="0.3"/>
    <circle cx="305" cy="0" r="35" fill="#14B8A6" opacity="0.3"/>
  </g>
  
  <!-- Subtle progress ring -->
  <circle cx="512" cy="512" r="420" 
          stroke="#14B8A6" 
          stroke-width="8" 
          fill="none"
          opacity="0.15"
          stroke-dasharray="300 2700"
          stroke-linecap="round"
          transform="rotate(-90 512 512)"/>
  
  <!-- Gradient definition -->
  <defs>
    <linearGradient id="gradient" x1="0%" y1="0%" x2="100%" y2="100%">
      <stop offset="0%" style="stop-color:#0F172A;stop-opacity:1" />
      <stop offset="40%" style="stop-color:#1E293B;stop-opacity:1" />
      <stop offset="100%" style="stop-color:#0C5B5C;stop-opacity:1" />
    </linearGradient>
  </defs>
</svg>
